<svg width="94" height="82" viewBox="0 0 94 82" fill="none" xmlns="http://www.w3.org/2000/svg">
<path fill-rule="evenodd" clip-rule="evenodd" d="M49.4508 0.297402C73.5247 1.40945 93.0062 21.0557 93.9535 45.1501V45.1295C94.3653 56.1265 90.988 66.2997 85.0365 74.4753C81.6179 79.1706 76.0989 81.8478 70.2915 81.8478H67.8409C68.0674 81.3124 68.541 79.6649 67.429 78.1822C66.9398 77.5299 66.0984 77.1417 65.2218 76.7373C63.6628 76.0181 61.9923 75.2474 61.9923 72.8484C61.9923 65.4068 67.5866 62.5307 73.5718 59.4536C80.4562 55.9142 87.8578 52.1089 87.8578 40.7843C87.8578 40.7843 79.6821 30.3434 69.406 29.7462C62.7748 29.3549 61.1685 30.2404 60.8802 30.8994C60.4684 27.4809 57.5441 11.6444 37.3418 8.28769C39.117 19.6388 43.8519 22.7194 48.4409 25.705C51.6779 27.811 54.8422 29.8697 56.8439 34.7504C56.8439 34.7504 46.2588 20.3761 28.8573 25.6686C28.8573 25.6686 35.2001 38.9721 53.9608 41.6904C53.9608 41.6904 55.4641 46.8388 55.9172 47.7449C55.9172 47.7449 27.0245 32.691 18.2516 61.5838C13.8649 60.7064 12.9341 63.0146 12.5429 63.9846C12.53 64.0164 12.5178 64.0468 12.506 64.0756C12.506 64.0756 11.1469 68.4002 17.0366 72.0247C17.0366 72.0247 18.3134 66.9587 21.423 65.4553C21.423 65.4553 14.7507 72.8896 22.5969 81.786C17.2631 81.333 12.3413 78.5528 9.19047 74.1458C3.71259 66.5056 0.5 57.1356 0.5 47.0035C0.5 20.4585 22.6175 -0.917617 49.4508 0.297402ZM55.3531 76.5426C57.3579 78.9247 59.2907 81.2212 61.251 81.8687H50.7483C51.3661 80.839 54.5787 74.8051 47.0209 70.2539C50.0604 70.2539 52.7667 73.4694 55.3531 76.5426Z" fill="white"/>
</svg>
