<svg width="1284" height="367" viewBox="0 0 1284 367" fill="none" xmlns="http://www.w3.org/2000/svg">
<path d="M944.982 264V227.135H984.167C991.898 227.135 998.409 225.344 1003.7 221.764C1008.99 218.183 1013.02 212.771 1015.78 205.528C1018.55 198.285 1019.93 189.171 1019.93 178.185V171.959C1019.93 161.054 1018.55 152.021 1015.78 144.859C1013.1 137.617 1009.03 132.205 1003.58 128.624C998.205 125.043 991.491 123.253 983.435 123.253H944.25V86.2656H983.435C999.711 86.2656 1014.07 89.9277 1026.53 97.252C1039.06 104.576 1048.86 114.708 1055.94 127.647C1063.02 140.506 1066.56 155.357 1066.56 172.203V178.185C1066.56 194.949 1063.02 209.801 1055.94 222.74C1048.86 235.68 1039.14 245.812 1026.77 253.136C1014.4 260.379 1000.2 264 984.167 264H944.982ZM971.472 264H925.573V86.2656H971.472V264ZM1115.76 190.392V159.508H1152.01C1161.54 159.508 1168.21 158.084 1172.03 155.235C1175.86 152.306 1177.77 147.952 1177.77 142.174C1177.77 135.338 1175.78 130.496 1171.79 127.647C1167.8 124.718 1161.33 123.253 1152.38 123.253H1133.09V264H1087.19V86.2656H1152.38C1174.68 86.2656 1192.09 90.3753 1204.63 98.5947C1217.24 106.733 1223.55 119.143 1223.55 135.826C1223.55 143.069 1222 149.946 1218.91 156.456C1215.82 162.885 1210.57 168.093 1203.16 172.081C1195.84 176.069 1185.75 178.022 1172.89 177.94L1160.92 190.392H1115.76ZM1104.65 264L1120.28 227.135H1159.22C1167.44 227.135 1173.17 225.426 1176.43 222.008C1179.68 218.59 1181.31 214.643 1181.31 210.167C1181.31 206.017 1180.62 202.477 1179.24 199.547C1177.93 196.617 1175.78 194.379 1172.77 192.833C1169.84 191.205 1165.89 190.392 1160.92 190.392H1124.3V159.508H1167.76L1178.5 172.081C1190.79 171.267 1200.43 172.773 1207.43 176.598C1214.51 180.341 1219.52 185.346 1222.45 191.612C1225.46 197.797 1226.96 204.226 1226.96 210.899C1226.96 228.559 1221.27 241.824 1209.88 250.694C1198.48 259.565 1181.6 264 1159.22 264H1104.65Z" fill="#E94560"/>
<path d="M386.592 262H297.236V225.135H386.592V262ZM313.35 262H267.573V84.2656H313.35V262ZM442.5 262H393.306L458.491 84.2656H489.497L484.126 127.112L442.5 262ZM476.069 127.112L470.088 84.2656H501.46L567.012 262H517.817L476.069 127.112ZM517.329 232.215H426.143V195.228H517.329V232.215ZM728.999 262H683.345L624.629 159.217V262H578.853V84.2656H624.629L683.345 187.049V84.2656H728.999V262ZM901.606 240.027C898.433 243.445 893.672 247.067 887.324 250.892C881.058 254.635 873.164 257.85 863.643 260.535C854.121 263.139 842.931 264.441 830.073 264.441C814.123 264.441 800.207 261.105 788.325 254.432C776.525 247.677 767.329 237.83 760.737 224.891C754.227 211.87 750.972 196.001 750.972 177.283V169.227C750.972 150.428 754.268 134.518 760.859 121.497C767.451 108.476 776.525 98.5885 788.081 91.834C799.637 85.0794 812.821 81.7021 827.632 81.7021C844.315 81.7021 857.865 84.347 868.281 89.6367C878.698 94.8451 886.551 102.129 891.841 111.487C897.131 120.846 900.345 131.629 901.484 143.836H857.417C856.685 138.139 855.26 133.419 853.145 129.676C851.029 125.932 848.058 123.125 844.233 121.253C840.409 119.381 835.404 118.445 829.219 118.445C822.79 118.445 817.174 120.236 812.373 123.816C807.653 127.397 803.991 132.931 801.387 140.418C798.783 147.824 797.48 157.345 797.48 168.982V177.283C797.48 188.676 798.701 198.117 801.143 205.604C803.665 213.009 807.572 218.543 812.861 222.205C818.151 225.786 824.987 227.576 833.369 227.576C837.52 227.576 841.019 227.291 843.867 226.722C846.797 226.071 849.238 225.298 851.191 224.402C853.145 223.507 854.65 222.612 855.708 221.717V197.547H827.998V165.076H901.606V240.027Z" fill="white"/>
<path fill-rule="evenodd" clip-rule="evenodd" d="M199.62 65.0789C194.444 49.1087 177.244 40.2859 161.236 45.3904L29.0045 87.5543C12.996 92.6588 4.20313 109.77 9.37978 125.74C14.5564 141.71 31.7556 150.533 47.7641 145.428L179.995 103.265C196.004 98.16 204.797 81.0492 199.62 65.0789Z" fill="#E94560"/>
<path fill-rule="evenodd" clip-rule="evenodd" d="M199.62 144.409C194.444 128.438 177.244 119.615 161.236 124.72L29.0045 166.884C12.996 171.988 4.20313 189.099 9.37978 205.069C14.5564 221.04 31.7556 229.863 47.7641 224.758L179.995 182.594C196.004 177.49 204.797 160.379 199.62 144.409Z" fill="#E94560"/>
<path fill-rule="evenodd" clip-rule="evenodd" d="M199.62 223.751C194.444 207.781 177.244 198.958 161.236 204.063L29.0045 246.227C12.996 251.331 4.20313 268.442 9.37978 284.412C14.5564 300.382 31.7556 309.205 47.7641 304.101L179.995 261.937C196.004 256.832 204.797 239.721 199.62 223.751Z" fill="#E94560"/>
</svg>
