<svg xmlns="http://www.w3.org/2000/svg" viewBox="0 0 512 512"><g><path fill="#4285F4" d="M113 309l-14 52-51 1c-23-43-9-98 34-127l45 37c-13 8-23 21-14 37z"/><path fill="#34A853" d="M497 208c2 13 3 26 3 39 0 130-87 223-216 223-124 0-225-101-225-225S160 20 284 20c62 0 115 23 156 61l-63 61c-17-16-47-35-93-35-79 0-143 65-143 144s64 144 143 144c91 0 126-65 131-99H284v-79h213z"/><path fill="#FBBC05" d="M113 309l-14 52-51 1c-23-43-9-98 34-127l45 37c-13 8-23 21-14 37z"/><path fill="#EA4335" d="M284 20c62 0 115 23 156 61l-63 61c-17-16-47-35-93-35-79 0-143 65-143 144s64 144 143 144c91 0 126-65 131-99H284v-79h213z"/></g></svg>
